# xmcd
#
# Track frame offsets:
#	150
#	12102
#	24112
#	33197
#	48129
#	58713
#	71693
#	86713
#	97507
#	110109
#	119974
#	130386
#	144430
#	155982
#	171797
#	183651
#	200138
#	226256
#	241289
#	253977
#	267735
#	285501
#	296379
#	319492
#
# Disc length: 4345 seconds
#
# Revision: 0
# Processed by: cddbd v1.5.1PL2 Copyright (c) Steve Scherf et al.
# Submitted via: EasyCDDAExtractor 9.1.3.1
#
DISCID=6a10f718
DTITLE=Elvis Presley - Vegas High Voltage - Songs Live from 1969-1970
DYEAR=1900
DGENRE=
TTITLE0=Blue Suede Shoes
TTITLE1=I Got A Woman
TTITLE2=Heartbreak Hotel
TTITLE3=Love Me Tender
TTITLE4=Baby, What You Want Me to Do
TTITLE5=Runaway
TTITLE6=Surrender/Are You Lonesome Tonight
TTITLE7=Rubberneckin'
TTITLE8=Memories
TTITLE9=Introductions by Elvis
TTITLE10=Jailhouse Rock/Don't Be Cruel
TTITLE11=Inherit The Wind
TTITLE12=This Is The Story
TTITLE13=Mystery Train/Tiger Man
TTITLE14=Funny How Time Slips Away
TTITLE15=Loving You/Reconsider Baby
TTITLE16=What'd I Say
TTITLE17=Suspicious Minds take 7
TTITLE18=In The Ghetto
TTITLE19=Don't Cry Daddy
TTITLE20=Kentucky Rain
TTITLE21=I Can't Stop Lovong You
TTITLE22=Suspicious Minds
TTITLE23=Long Tall Sally
EXTD=
EXTT0=
EXTT1=
EXTT2=
EXTT3=
EXTT4=
EXTT5=
EXTT6=
EXTT7=
EXTT8=
EXTT9=
EXTT10=
EXTT11=
EXTT12=
EXTT13=
EXTT14=
EXTT15=
EXTT16=
EXTT17=
EXTT18=
EXTT19=
EXTT20=
EXTT21=
EXTT22=
EXTT23=
PLAYORDER=
